<?xml version="1.0" encoding="utf-8"?>
<!-- Svg Vector Icons : http://www.onlinewebfonts.com/icon -->
<!DOCTYPE svg PUBLIC "-//W3C//DTD SVG 1.1//EN" "http://www.w3.org/Graphics/SVG/1.1/DTD/svg11.dtd">
<svg version="1.1" xmlns="http://www.w3.org/2000/svg" xmlns:xlink="http://www.w3.org/1999/xlink" x="0px" y="0px" viewBox="0 0 1000 1000" enable-background="new 0 0 1000 1000" xml:space="preserve">
<metadata> Svg Vector Icons : http://www.onlinewebfonts.com/icon </metadata>
<g><path fill="crimson" d="M852.3,135.6l-47.7,48.3c157.6,178.7,157.4,451,0.1,631l48.8,49.5C1035.9,672.1,1035.5,327.2,852.3,135.6z M740.9,248.6l-49.3,49.9c96.1,115.5,96.1,285.8,0.5,402.1l48.8,49.6C863.4,606.1,863.6,391.5,740.9,248.6z M195.4,183.9l-47.7-48.3c-183.2,191.6-183.6,536.5-1.2,728.8l48.8-49.5C37.9,635,37.8,362.6,195.4,183.9z M259.1,248.6C136.4,391.5,136.6,606.1,259,750.3l48.8-49.6c-95.6-116.4-95.6-286.6,0.4-402.1L259.1,248.6z M499.8,340.4c-87.3,0-158.1,71.8-158.1,160.4c0,88.5,70.8,160.4,158.1,160.4c87.3,0,158.1-71.8,158.1-160.4C657.8,412.2,587,340.4,499.8,340.4z"/></g>
</svg>